<svg xmlns:dc="http://purl.org/dc/elements/1.1/" xmlns:rdf="http://www.w3.org/1999/02/22-rdf-syntax-ns#" xmlns:svg="http://www.w3.org/2000/svg" xmlns="http://www.w3.org/2000/svg" version="1.1" width="172" height="83" xml:space="preserve" viewBox="0"><metadata><rdf:RDF><dc:about>http://www.immobilienscout24.de</dc:about><dc:format>image/svg+xml</dc:format><dc:type rdf:resource="http://purl.org/dc/dcmitype/StillImage"/><dc:title>Immobilienscout24</dc:title><dc:publisher>Immobilienscout24</dc:publisher><dc:date>2013-08-23</dc:date></rdf:RDF></metadata><g transform="matrix(1.25,0,0,-1.25,0,82.8875)"><g transform="scale(0.1,0.1)"><path d="m0 378.113 0-84.297 1373.14 0 0 84.297-1373.14 0 0 0" fill="#fff"/><path d="m0 663.125 0-320.52 1373.14 0 0 320.52-1373.14 0 0 0" fill="#003468"/><path d="m0 0 1211.32 0c90.03 0 161.82 73.906 161.82 160.496l0 160L0 320.496 0 0" fill="#ff7500"/><path d="m125.215 67.922-2.324 0c-27.871 0-51.879 19.363-51.879 51.629 0 19.863 29.945 19.863 29.945 0 0-13.938 9.031-21.945 21.934-21.945l2.324 0c12.906 0 22.715 6.711 22.715 19.622 0 32.265-75.106 35.351-75.106 82.585 0 3.364 0 2.083 0 5.422 0 27.618 27.614 44.141 50.067 44.141l2.324 0c26.582 0 50.336-16.523 50.336-41.289 0-19.109-29.688-19.629-29.688-0.781 0 6.711-8.258 12.383-20.648 12.383l-2.324 0c-11.352 0-20.137-6.192-20.137-16.004 0-3.352 0-0.774 0-3.872 0-20.378 75.113-29.421 75.113-82.585 0-29.434-22.965-49.305-52.652-49.305l0 0M255.023 67.922l-2.312 0c-28.395 0-51.617 21.941-51.617 50.594l0 80.527c0 28.652 23.222 50.332 51.617 50.332l2.312 0c26.071 0 47.754-17.813 51.11-43.105 0.262-0.782 0.262-1.543 0.262-2.586 0-9.289-7.743-14.454-15.227-14.454-6.703 0-13.164 4.129-14.449 12.911-1.559 10.586-10.59 17.547-21.696 17.547l-2.312 0c-12.137 0-21.941-8.782-21.941-20.645l0-80.527c0-12.129 10.058-20.91 21.941-20.91l2.312 0c11.106 0 20.137 6.973 21.696 17.563 1.285 8.77 7.992 12.898 14.449 12.898 7.746 0 15.227-5.168 15.227-14.453 0-1.047 0-1.816 0-2.832C302.52 85.996 281.094 67.922 255.023 67.922l0 0M403.434 198.789c0 12.117-9.547 20.899-21.68 20.899l-2.324 0c-12.129 0-21.688-9.024-21.688-20.899l0-80.019c0-12.129 9.817-21.164 21.688-21.164l2.324 0c12.133 0 21.68 9.036 21.68 20.911l0 80.273zm-21.68-130.867-2.324 0c-28.391 0-51.618 22.207-51.618 50.594l0 80.273c0 28.645 23.227 50.586 51.618 50.586l2.324 0c28.644 0 51.609-21.941 51.609-50.586l0-80.019c0-28.641-22.965-50.848-51.609-50.848l0 0M518.023 67.922l-2.316 0c-28.387 0-51.621 23.23-51.621 51.629l0 114.844c0 10.078 7.484 14.98 14.969 14.98 7.484 0 14.968-4.902 14.968-14.98l0-114.844c0-11.875 9.809-21.945 21.684-21.945l2.316 0c12.137 0 21.942 9.805 21.942 21.946l0 114.844c0 10.078 7.476 14.98 14.973 14.98 7.488 0 14.964-4.902 14.964-14.98l0-114.844c0-28.399-23.218-51.629-51.879-51.629l0 0M675.723 218.145l-20.645 0 0-135.254c0-10.059-7.496-14.969-14.984-14.969-7.477 0-14.961 4.91-14.961 14.969l0 135.254-20.653 0c-9.8 0-14.964 7.48-14.964 14.96 0 7.239 5.164 14.727 14.964 14.727l71.243 0c10.062 0 14.965-7.488 14.965-14.727 0-7.48-4.903-14.96-14.965-14.96l0 0M815.102 69.473l-67.118 0c-9.55 0-15.226 9.035-15.226 17.813 0 3.359 0.519 6.453 2.324 9.285l58.594 94.465c3.086 5.176 3.086 8.008 3.086 11.875l0 2.07c0 7.747-6.707 14.708-15.469 14.708l-0.781 0c-8.524 0-14.961-6.708-14.961-14.708l0-2.839c0-9.805-7.5-14.7-14.989-14.7-7.472 0-14.972 4.895-14.972 14.7l0 3.875c0 25.031 20.383 43.359 44.922 43.359l0.781 0c24.258 0 45.402-18.074 45.402-43.359l-0.254-2.84c0-9.817-3.605-17.817-9.043-26.848l-47.218-77.168 44.922 0c10.05 0 14.953-7.488 14.953-14.719 0-7.477-4.903-14.969-14.953-14.969l0 0M933.023 104.836l-5.675 0 0-21.945c0-10.059-7.489-14.969-14.961-14.969-7.489 0-14.961 4.91-14.961 14.969l0 21.945-40.547 0c-10.32 0-16.766 5.672-16.766 15.75 0 2.566 0.516 5.93 1.543 8.254l48.27 111.504c2.832 6.441 8.008 9.031 13.164 9.031 7.726 0 15.48-5.937 15.48-14.453 0-2.07-0.254-4.121-1.281-6.453l-42.605-93.949 22.742 0 0 14.972c0 9.817 7.472 14.961 14.961 14.961 7.472 0 14.961-4.902 14.961-14.961l0-14.972 5.675 0c10.067 0 14.961-7.235 14.961-14.715 0-7.481-4.894-14.969-14.961-14.969l0 0" fill="#003468"/><path d="m93.273 409.504c-7.488 0-14.973 4.891-14.973 14.976l0 151.493c0 10.074 7.484 14.98 14.973 14.98 7.485 0 14.965-4.906 14.965-14.98l0-151.493c0-10.085-7.48-14.976-14.965-14.976l0 0M268.406 409.504c-7.484 0-14.965 4.891-14.965 14.976l0 94.45-21.941-50.571c-3.613-8.523-10.324-10.078-15.23-10.078-4.903 0-11.614 1.555-15.223 10.078l-21.942 50.571 0-94.45c0-10.085-7.484-14.976-14.968-14.976-7.481 0-14.965 4.891-14.965 14.976l0 151.493c0 8.007 6.957 14.98 14.965 14.98l3.867 0c9.551 0 13.168-6.195 16.269-12.914l31.997-72.269 32.011 72.269c2.832 6.719 6.707 12.914 16.254 12.914l3.871 0c8.004 0 14.977-6.973 14.977-14.98l0-151.493c0-10.085-7.492-14.976-14.977-14.976l0 0M443.215 409.504c-7.492 0-14.973 4.891-14.973 14.976l0 94.45-21.937-50.571c-3.614-8.523-10.325-10.078-15.231-10.078-4.902 0-11.609 1.555-15.23 10.078l-21.938 50.571 0-94.45c0-10.085-7.48-14.976-14.965-14.976-7.48 0-14.964 4.891-14.964 14.976l0 151.493c0 8.007 6.968 14.98 14.964 14.98l3.868 0c9.55 0 13.168-6.195 16.261-12.914l32.004-72.269 32.012 72.269c2.836 6.719 6.703 12.914 16.254 12.914l3.875 0c8 0 14.969-6.973 14.969-14.98l0-151.493c0-10.085-7.481-14.976-14.969-14.976l0 0M570.855 540.359c0 12.137-9.546 20.907-21.683 20.907l-2.317 0c-12.136 0-21.683-9.036-21.683-20.907l0-80.007c0-12.137 9.808-21.172 21.683-21.172l2.317 0c12.137 0 21.683 9.035 21.683 20.918l0 80.261zm-21.683-130.855-2.317 0c-28.394 0-51.621 22.195-51.621 50.594l0 80.261c0 28.657 23.227 50.594 51.621 50.594l2.317 0c28.66 0 51.621-21.937 51.621-50.594l0-80.007c0-28.653-22.961-50.848-51.621-50.848l0 0M712.223 464.734c0 12.903-10.578 23.231-21.946 23.231l-22.195 0 0-47.235 22.195 0c12.121 0 21.946 9.805 21.946 21.938l0 2.066zm-21.946 94.989-22.195 0 0-42.078 22.195 0c11.114 0 19.875 9.035 19.875 22.203 0 12.648-8.261 19.875-19.875 19.875l0 0zm-0.254-148.676-36.91 0c-7.996 0-14.968 6.973-14.968 14.969l0 148.418c0 7.996 6.972 14.964 14.968 14.964l36.91 0c28.907 0 50.079-21.418 50.079-49.55 0-17.559-7.227-26.594-16.532-36.395 10.321-10.074 18.575-21.937 18.575-38.719l0-2.066c0-28.645-23.469-51.621-52.122-51.621l0 0M787.691 409.504c-7.472 0-14.961 4.891-14.961 14.976l0 151.493c0 10.074 7.489 14.98 14.961 14.98 7.489 0 14.989-4.906 14.989-14.98l0-151.493c0-10.085-7.5-14.976-14.989-14.976l0 0M923.539 410.812l-65.82 0c-7.996 0-14.961 6.969-14.961 14.969l0 149.957c0 10.071 7.472 14.981 14.961 14.981 7.5 0 14.972-4.91 14.972-14.981l0-135.242 50.848 0c10.07 0 14.981-7.476 14.981-14.969 0-7.226-4.911-14.715-14.981-14.715l0 0M968.473 409.504c-7.5 0-14.973 4.891-14.973 14.976l0 151.493c0 10.074 7.473 14.98 14.973 14.98 7.488 0 14.961-4.906 14.961-14.98l0-151.493c0-10.085-7.473-14.976-14.961-14.976l0 0M1113.1 410.891l-75.62 0c-8 0-14.98 6.968-14.98 14.968l0 148.414c0 7.997 6.98 14.965 14.98 14.965l75.62 0c10.07 0 14.96-7.48 14.96-14.715 0-7.48-4.89-14.968-14.96-14.968l-60.66 0 0-42.071 40.28 0c10.05 0 14.96-7.484 14.96-14.964 0-7.239-4.91-14.715-14.96-14.715l-40.28 0 0-47.239 60.66 0c10.07 0 14.96-7.468 14.96-14.961 0-7.238-4.89-14.714-14.96-14.714l0 0M1247.93 409.504l-2.83 0c-9.55 0-13.44 6.187-16.28 12.898l-41.53 96.528 0-94.45c0-10.085-7.5-14.976-14.98-14.976-7.49 0-14.96 4.891-14.96 14.976l0 151.493c0 8.007 6.96 14.98 14.96 14.98l3.36 0c9.55 0 13.16-6.195 16.25-12.914l41.05-92.922 0 91.117c0 9.813 7.47 14.719 14.96 14.719 7.48 0 14.97-4.906 14.97-14.719l0-151.754c0-8.015-6.97-14.976-14.97-14.976l0 0" fill="#fff"/></g></g></svg>