<?xml version="1.0" encoding="UTF-8" standalone="no"?>
<!-- Created with Inkscape (http://www.inkscape.org/) -->

<svg
   xmlns:dc="http://purl.org/dc/elements/1.1/"
   xmlns:cc="http://creativecommons.org/ns#"
   xmlns:rdf="http://www.w3.org/1999/02/22-rdf-syntax-ns#"
   xmlns:svg="http://www.w3.org/2000/svg"
   xmlns="http://www.w3.org/2000/svg"
   version="1.1"
   width="112"
   height="56"
   id="svg3793"
   viewBox="0 0 112 56"
   xml:space="preserve"><metadata
     id="metadata3799"><rdf:RDF><cc:Work
         rdf:about=""><dc:format>image/svg+xml</dc:format><dc:type
           rdf:resource="http://purl.org/dc/dcmitype/StillImage" /><dc:title></dc:title></cc:Work></rdf:RDF></metadata><defs
     id="defs3797"><clipPath
       id="clipPath3809"><path
         d="M 0,707.324 0,0 l 1417.32,0 0,707.324 -1417.32,0 z"
         id="path3811" /></clipPath></defs><g
     transform="matrix(0.7902238,0,0,-0.7902238,0,55.894426)"
     id="g3801"><g
       transform="scale(0.1,0.1)"
       id="g3803"><g
         id="g3805"><g
           clip-path="url(#clipPath3809)"
           id="g3807"><path
             d="m 22.0898,400.234 0,-84.296 1373.1502,0 0,84.296 -1373.1502,0 0,0"
             id="path3813"
             style="fill:#ffffff;fill-opacity:1;fill-rule:nonzero;stroke:none" /><path
             d="M 0,707.324 0,0 1233.43,0 c 101.39,0 183.89,81.9336 183.89,182.637 l 0,524.687 -1417.32,0 0,0"
             id="path3815"
             style="fill:#ffffff;fill-opacity:1;fill-rule:nonzero;stroke:none" /><path
             d="m 22.0898,685.242 0,-320.515 1373.1502,0 0,320.515 -1373.1502,0 0,0"
             id="path3817"
             style="fill:#003468;fill-opacity:1;fill-rule:nonzero;stroke:none" /><path
             d="m 22.0898,22.1172 1211.3402,0 c 90.01,0 161.81,73.9062 161.81,160.4998 l 0,160 -1373.1502,0 0,-320.4998"
             id="path3819"
             style="fill:#ff7500;fill-opacity:1;fill-rule:nonzero;stroke:none" /><path
             d="m 147.305,90.0391 -2.325,0 c -27.871,0 -51.8784,19.3629 -51.8784,51.6329 0,19.859 29.9454,19.859 29.9454,0 0,-13.938 9.031,-21.945 21.933,-21.945 l 2.325,0 c 12.906,0 22.715,6.707 22.715,19.617 0,32.265 -75.1098,35.351 -75.1098,82.59 0,3.359 0,2.078 0,5.418 0,27.617 27.6168,44.14 50.0698,44.14 l 2.325,0 c 26.582,0 50.336,-16.523 50.336,-41.289 0,-19.109 -29.688,-19.629 -29.688,-0.777 0,6.707 -8.258,12.379 -20.648,12.379 l -2.325,0 c -11.351,0 -20.136,-6.192 -20.136,-16.004 0,-3.352 0,-0.774 0,-3.867 0,-20.379 75.113,-29.422 75.113,-82.59 0,-29.434 -22.965,-49.3049 -52.652,-49.3049 l 0,0"
             id="path3821"
             style="fill:#003468;fill-opacity:1;fill-rule:nonzero;stroke:none" /><path
             d="m 277.113,90.0391 -2.312,0 c -28.395,0 -51.617,21.9409 -51.617,50.5979 l 0,80.523 c 0,28.652 23.222,50.332 51.617,50.332 l 2.312,0 c 26.071,0 47.754,-17.812 51.11,-43.105 0.261,-0.782 0.261,-1.543 0.261,-2.586 0,-9.289 -7.742,-14.453 -15.226,-14.453 -6.703,0 -13.164,4.129 -14.449,12.91 -1.559,10.586 -10.59,17.547 -21.696,17.547 l -2.312,0 c -12.137,0 -21.942,-8.778 -21.942,-20.645 l 0,-80.523 c 0,-12.129 10.063,-20.91 21.942,-20.91 l 2.312,0 c 11.106,0 20.137,6.972 21.696,17.558 1.285,8.77 7.992,12.899 14.449,12.899 7.75,0 15.226,-5.164 15.226,-14.454 0,-1.042 0,-1.816 0,-2.832 -3.875,-24.785 -25.3,-42.8589 -51.371,-42.8589 l 0,0"
             id="path3823"
             style="fill:#003468;fill-opacity:1;fill-rule:nonzero;stroke:none" /><path
             d="m 425.523,220.906 c 0,12.121 -9.546,20.899 -21.679,20.899 l -2.324,0 c -12.129,0 -21.684,-9.024 -21.684,-20.899 l 0,-80.019 c 0,-12.125 9.812,-21.16 21.684,-21.16 l 2.324,0 c 12.133,0 21.679,9.035 21.679,20.91 l 0,80.269 z m -21.679,-130.8669 -2.324,0 c -28.391,0 -51.618,22.2069 -51.618,50.5979 l 0,80.269 c 0,28.645 23.227,50.586 51.618,50.586 l 2.324,0 c 28.644,0 51.609,-21.941 51.609,-50.586 l 0,-80.019 c 0,-28.641 -22.965,-50.8479 -51.609,-50.8479 l 0,0"
             id="path3825"
             style="fill:#003468;fill-opacity:1;fill-rule:nonzero;stroke:none" /><path
             d="m 540.113,90.0391 -2.316,0 c -28.387,0 -51.621,23.2309 -51.621,51.6329 l 0,114.84 c 0,10.082 7.484,14.98 14.969,14.98 7.484,0 14.968,-4.898 14.968,-14.98 l 0,-114.84 c 0,-11.875 9.809,-21.945 21.684,-21.945 l 2.316,0 c 12.137,0 21.942,9.804 21.942,21.945 l 0,114.84 c 0,10.082 7.476,14.98 14.972,14.98 7.489,0 14.965,-4.898 14.965,-14.98 l 0,-114.84 c 0,-28.402 -23.219,-51.6329 -51.879,-51.6329 l 0,0"
             id="path3827"
             style="fill:#003468;fill-opacity:1;fill-rule:nonzero;stroke:none" /><path
             d="m 697.812,240.262 -20.644,0 0,-135.25 c 0,-10.0628 -7.496,-14.9729 -14.984,-14.9729 -7.477,0 -14.961,4.9101 -14.961,14.9729 l 0,135.25 -20.653,0 c -9.8,0 -14.965,7.48 -14.965,14.961 0,7.238 5.165,14.726 14.965,14.726 l 71.242,0 c 10.071,0 14.965,-7.488 14.965,-14.726 0,-7.481 -4.894,-14.961 -14.965,-14.961 l 0,0"
             id="path3829"
             style="fill:#003468;fill-opacity:1;fill-rule:nonzero;stroke:none" /><path
             d="m 837.188,91.5938 -67.11,0 c -9.551,0 -15.234,9.0312 -15.234,17.8082 0,3.36 0.527,6.457 2.324,9.289 l 58.594,94.461 c 3.086,5.176 3.086,8.008 3.086,11.875 l 0,2.071 c 0,7.746 -6.7,14.707 -15.469,14.707 l -0.781,0 c -8.516,0 -14.961,-6.707 -14.961,-14.707 l 0,-2.84 c 0,-9.805 -7.5,-14.699 -14.981,-14.699 -7.48,0 -14.968,4.894 -14.968,14.699 l 0,3.879 c 0,25.027 20.378,43.355 44.91,43.355 l 0.781,0 c 24.258,0 45.422,-18.074 45.422,-43.355 l -0.266,-2.844 c 0,-9.816 -3.613,-17.813 -9.043,-26.848 l -47.226,-77.168 44.922,0 c 10.058,0 14.96,-7.488 14.96,-14.715 0,-7.48 -4.902,-14.9682 -14.96,-14.9682 l 0,0"
             id="path3831"
             style="fill:#003468;fill-opacity:1;fill-rule:nonzero;stroke:none" /><path
             d="m 955.117,126.953 -5.676,0 0,-21.941 c 0,-10.0628 -7.488,-14.9729 -14.968,-14.9729 -7.481,0 -14.961,4.9101 -14.961,14.9729 l 0,21.941 -40.535,0 c -10.325,0 -16.77,5.676 -16.77,15.75 0,2.57 0.52,5.93 1.543,8.254 l 48.262,111.504 c 2.843,6.445 8.008,9.031 13.164,9.031 7.746,0 15.488,-5.937 15.488,-14.453 0,-2.07 -0.254,-4.117 -1.289,-6.453 l -42.598,-93.945 22.735,0 0,14.968 c 0,9.817 7.48,14.961 14.961,14.961 7.48,0 14.968,-4.898 14.968,-14.961 l 0,-14.968 5.676,0 c 10.059,0 14.973,-7.239 14.973,-14.715 0,-7.485 -4.914,-14.973 -14.973,-14.973 l 0,0"
             id="path3833"
             style="fill:#003468;fill-opacity:1;fill-rule:nonzero;stroke:none" /><path
             d="m 115.359,431.621 c -7.484,0 -14.968,4.891 -14.968,14.981 l 0,151.488 c 0,10.074 7.484,14.98 14.968,14.98 7.489,0 14.969,-4.906 14.969,-14.98 l 0,-151.488 c 0,-10.09 -7.48,-14.981 -14.969,-14.981 l 0,0"
             id="path3835"
             style="fill:#ffffff;fill-opacity:1;fill-rule:nonzero;stroke:none" /><path
             d="m 290.496,431.621 c -7.484,0 -14.965,4.891 -14.965,14.981 l 0,94.449 -21.941,-50.574 c -3.613,-8.524 -10.324,-10.079 -15.231,-10.079 -4.902,0 -11.613,1.555 -15.222,10.079 l -21.942,50.574 0,-94.449 c 0,-10.09 -7.484,-14.981 -14.968,-14.981 -7.481,0 -14.965,4.891 -14.965,14.981 l 0,151.488 c 0,8.008 6.957,14.98 14.965,14.98 l 3.867,0 c 9.551,0 13.168,-6.195 16.269,-12.914 l 31.996,-72.265 32.012,72.265 c 2.832,6.719 6.707,12.914 16.254,12.914 l 3.871,0 c 8.004,0 14.977,-6.972 14.977,-14.98 l 0,-151.488 c 0,-10.09 -7.493,-14.981 -14.977,-14.981 l 0,0"
             id="path3837"
             style="fill:#ffffff;fill-opacity:1;fill-rule:nonzero;stroke:none" /><path
             d="m 465.305,431.621 c -7.493,0 -14.973,4.891 -14.973,14.981 l 0,94.449 -21.937,-50.574 c -3.614,-8.524 -10.325,-10.079 -15.231,-10.079 -4.902,0 -11.609,1.555 -15.23,10.079 l -21.938,50.574 0,-94.449 c 0,-10.09 -7.48,-14.981 -14.965,-14.981 -7.48,0 -14.969,4.891 -14.969,14.981 l 0,151.488 c 0,8.008 6.973,14.98 14.969,14.98 l 3.867,0 c 9.551,0 13.168,-6.195 16.262,-12.914 l 32.004,-72.265 32.012,72.265 c 2.836,6.719 6.703,12.914 16.254,12.914 l 3.875,0 c 8,0 14.968,-6.972 14.968,-14.98 l 0,-151.488 c 0,-10.09 -7.48,-14.981 -14.968,-14.981 l 0,0"
             id="path3839"
             style="fill:#ffffff;fill-opacity:1;fill-rule:nonzero;stroke:none" /><path
             d="m 592.945,562.48 c 0,12.133 -9.547,20.903 -21.683,20.903 l -2.317,0 c -12.136,0 -21.683,-9.031 -21.683,-20.903 l 0,-80.011 c 0,-12.137 9.808,-21.168 21.683,-21.168 l 2.317,0 c 12.136,0 21.683,9.031 21.683,20.918 l 0,80.261 z m -21.683,-130.859 -2.317,0 c -28.394,0 -51.621,22.195 -51.621,50.598 l 0,80.261 c 0,28.653 23.227,50.59 51.621,50.59 l 2.317,0 c 28.66,0 51.621,-21.937 51.621,-50.59 l 0,-80.011 c 0,-28.653 -22.961,-50.848 -51.621,-50.848 l 0,0"
             id="path3841"
             style="fill:#ffffff;fill-opacity:1;fill-rule:nonzero;stroke:none" /><path
             d="m 734.316,486.855 c 0,12.903 -10.586,23.227 -21.945,23.227 l -22.199,0 0,-47.23 22.199,0 c 12.121,0 21.945,9.804 21.945,21.933 l 0,2.07 z m -21.945,94.985 -22.199,0 0,-42.074 22.199,0 c 11.106,0 19.875,9.035 19.875,22.203 0,12.644 -8.262,19.871 -19.875,19.871 l 0,0 z m -0.258,-148.676 -36.91,0 c -7.996,0 -14.969,6.973 -14.969,14.973 l 0,148.418 c 0,7.996 6.973,14.965 14.969,14.965 l 36.91,0 c 28.903,0 50.075,-21.422 50.075,-49.551 0,-17.559 -7.227,-26.598 -16.512,-36.399 10.308,-10.074 18.562,-21.937 18.562,-38.715 l 0,-2.07 c 0,-28.644 -23.476,-51.621 -52.125,-51.621 l 0,0"
             id="path3843"
             style="fill:#ffffff;fill-opacity:1;fill-rule:nonzero;stroke:none" /><path
             d="m 809.797,431.621 c -7.492,0 -14.973,4.891 -14.973,14.981 l 0,151.488 c 0,10.074 7.481,14.98 14.973,14.98 7.469,0 14.969,-4.906 14.969,-14.98 l 0,-151.488 c 0,-10.09 -7.5,-14.981 -14.969,-14.981 l 0,0"
             id="path3845"
             style="fill:#ffffff;fill-opacity:1;fill-rule:nonzero;stroke:none" /><path
             d="m 945.625,432.93 -65.813,0 c -7.996,0 -14.968,6.972 -14.968,14.968 l 0,149.957 c 0,10.075 7.492,14.981 14.968,14.981 7.493,0 14.973,-4.906 14.973,-14.981 l 0,-135.238 50.84,0 c 10.078,0 14.98,-7.48 14.98,-14.972 0,-7.223 -4.902,-14.715 -14.98,-14.715 l 0,0"
             id="path3847"
             style="fill:#ffffff;fill-opacity:1;fill-rule:nonzero;stroke:none" /><path
             d="m 990.566,431.621 c -7.492,0 -14.98,4.891 -14.98,14.981 l 0,151.488 c 0,10.074 7.488,14.98 14.98,14.98 7.481,0 14.964,-4.906 14.964,-14.98 l 0,-151.488 c 0,-10.09 -7.483,-14.981 -14.964,-14.981 l 0,0"
             id="path3849"
             style="fill:#ffffff;fill-opacity:1;fill-rule:nonzero;stroke:none" /><path
             d="m 1135.2,433.008 -75.63,0 c -8.01,0 -14.97,6.972 -14.97,14.969 l 0,148.414 c 0,8 6.96,14.964 14.97,14.964 l 75.63,0 c 10.05,0 14.96,-7.476 14.96,-14.714 0,-7.481 -4.91,-14.965 -14.96,-14.965 l -60.67,0 0,-42.071 40.27,0 c 10.06,0 14.98,-7.488 14.98,-14.968 0,-7.235 -4.92,-14.715 -14.98,-14.715 l -40.27,0 0,-47.238 60.67,0 c 10.05,0 14.96,-7.469 14.96,-14.961 0,-7.235 -4.91,-14.715 -14.96,-14.715 l 0,0"
             id="path3851"
             style="fill:#ffffff;fill-opacity:1;fill-rule:nonzero;stroke:none" /><path
             d="m 1270.02,431.621 -2.83,0 c -9.55,0 -13.43,6.191 -16.26,12.899 l -41.55,96.531 0,-94.449 c 0,-10.09 -7.5,-14.981 -14.99,-14.981 -7.48,0 -14.96,4.891 -14.96,14.981 l 0,151.488 c 0,8.008 6.98,14.98 14.96,14.98 l 3.36,0 c 9.55,0 13.18,-6.195 16.26,-12.914 l 41.05,-92.922 0,91.121 c 0,9.809 7.49,14.715 14.96,14.715 7.49,0 14.97,-4.906 14.97,-14.715 l 0,-151.753 c 0,-8.016 -6.96,-14.981 -14.97,-14.981 l 0,0"
             id="path3853"
             style="fill:#ffffff;fill-opacity:1;fill-rule:nonzero;stroke:none" /></g></g></g></g></svg>
